<?xml version="1.0" encoding="UTF-8"?>
<!DOCTYPE svg PUBLIC "-//W3C//DTD SVG 1.1//EN" "http://www.w3.org/Graphics/SVG/1.1/DTD/svg11.dtd">
<svg xmlns="http://www.w3.org/2000/svg" version="1.1" width="225px" height="225px" style="shape-rendering:geometricPrecision; text-rendering:geometricPrecision; image-rendering:optimizeQuality; fill-rule:evenodd; clip-rule:evenodd" xmlns:xlink="http://www.w3.org/1999/xlink">
<g><path style="opacity:1" fill="#fefefe" d="M -0.5,-0.5 C 74.5,-0.5 149.5,-0.5 224.5,-0.5C 224.5,74.5 224.5,149.5 224.5,224.5C 149.5,224.5 74.5,224.5 -0.5,224.5C -0.5,149.5 -0.5,74.5 -0.5,-0.5 Z"/></g>
<g><path style="opacity:1" fill="#050217" d="M 153.5,50.5 C 152.4,48.7226 151.566,46.7226 151,44.5C 150.667,44.8333 150.333,45.1667 150,45.5C 148.283,44.5448 146.616,43.5448 145,42.5C 142.519,43.0217 140.186,43.0217 138,42.5C 133.694,39.6627 129.528,38.3293 125.5,38.5C 124.803,36.6155 123.803,36.2822 122.5,37.5C 121.803,35.6155 120.803,35.2822 119.5,36.5C 116.943,35.5933 114.443,34.5933 112,33.5C 111.667,33.8333 111.333,34.1667 111,34.5C 107.375,32.7737 103.709,31.107 100,29.5C 98.6054,30.8146 97.6054,30.4812 97,28.5C 95.6054,29.8146 94.6054,29.4812 94,27.5C 93.2753,28.0585 92.4419,28.3918 91.5,28.5C 89.3987,27.4083 87.2321,26.4083 85,25.5C 83.8525,26.4581 82.8525,26.1247 82,24.5C 81,25.8333 80,25.8333 79,24.5C 77.7659,28.7152 76.2659,32.7152 74.5,36.5C 75.8216,30.0333 77.655,23.7 80,17.5C 81.8734,15.2911 84.04,13.4578 86.5,12C 103.167,11.3333 119.833,11.3333 136.5,12C 140.641,13.4741 143.474,16.3074 145,20.5C 148.35,30.3788 151.183,40.3788 153.5,50.5 Z"/></g>
<g><path style="opacity:1" fill="#09021b" d="M 153.5,50.5 C 158.771,65.5675 163.438,80.9008 167.5,96.5C 165.926,94.8984 165.259,92.8984 165.5,90.5C 152.071,87.2468 138.737,83.5801 125.5,79.5C 124.614,80.325 124.281,81.325 124.5,82.5C 120.868,72.7667 117.702,62.7667 115,52.5C 113.534,50.6751 111.701,50.1751 109.5,51C 104.806,63.9385 100.806,77.1051 97.5,90.5C 94.6601,90.2956 91.9935,88.9622 89.5,86.5C 88.1667,86.8333 86.8333,87.1667 85.5,87.5C 83.6378,85.2633 81.4711,84.5966 79,85.5C 78.323,83.311 77.1563,82.9776 75.5,84.5C 74.8076,83.9747 74.3076,83.3081 74,82.5C 73.6667,82.8333 73.3333,83.1667 73,83.5C 71.4284,81.4372 69.595,80.7706 67.5,81.5C 66.086,80.376 64.586,79.376 63,78.5C 61.7245,80.8583 60.5578,83.1916 59.5,85.5C 63.9255,68.8971 68.9255,52.5638 74.5,36.5C 76.2659,32.7152 77.7659,28.7152 79,24.5C 80,25.8333 81,25.8333 82,24.5C 82.8525,26.1247 83.8525,26.4581 85,25.5C 87.2321,26.4083 89.3987,27.4083 91.5,28.5C 92.4419,28.3918 93.2753,28.0585 94,27.5C 94.6054,29.4812 95.6054,29.8146 97,28.5C 97.6054,30.4812 98.6054,30.8146 100,29.5C 103.709,31.107 107.375,32.7737 111,34.5C 111.333,34.1667 111.667,33.8333 112,33.5C 114.443,34.5933 116.943,35.5933 119.5,36.5C 120.803,35.2822 121.803,35.6155 122.5,37.5C 123.803,36.2822 124.803,36.6155 125.5,38.5C 129.528,38.3293 133.694,39.6627 138,42.5C 140.186,43.0217 142.519,43.0217 145,42.5C 146.616,43.5448 148.283,44.5448 150,45.5C 150.333,45.1667 150.667,44.8333 151,44.5C 151.566,46.7226 152.4,48.7226 153.5,50.5 Z"/></g>
<g><path style="opacity:1" fill="#110422" d="M 97.5,90.5 C 92.5465,105.646 88.2132,120.979 84.5,136.5C 76.2949,137.384 68.2949,139.218 60.5,142C 53.0258,145.084 45.6925,148.084 38.5,151C 45.231,128.977 52.231,107.144 59.5,85.5C 60.5578,83.1916 61.7245,80.8583 63,78.5C 64.586,79.376 66.086,80.376 67.5,81.5C 69.595,80.7706 71.4284,81.4372 73,83.5C 73.3333,83.1667 73.6667,82.8333 74,82.5C 74.3076,83.3081 74.8076,83.9747 75.5,84.5C 77.1563,82.9776 78.323,83.311 79,85.5C 81.4711,84.5966 83.6378,85.2633 85.5,87.5C 86.8333,87.1667 88.1667,86.8333 89.5,86.5C 91.9935,88.9622 94.6601,90.2956 97.5,90.5 Z"/></g>
<g><path style="opacity:1" fill="#0f0420" d="M 167.5,96.5 C 173.901,114.539 179.401,132.872 184,151.5C 169.927,144.198 155.094,139.198 139.5,136.5C 134.498,118.494 129.498,100.494 124.5,82.5C 124.281,81.325 124.614,80.325 125.5,79.5C 138.737,83.5801 152.071,87.2468 165.5,90.5C 165.259,92.8984 165.926,94.8984 167.5,96.5 Z"/></g>
<g><path style="opacity:1" fill="#ff5c05" d="M 100.5,166.5 C 113.738,172.783 127.071,179.116 140.5,185.5C 133.979,190.359 127.479,195.359 121,200.5C 116.99,206.405 116.49,212.572 119.5,219C 113.868,217.046 109.702,213.213 107,207.5C 105.037,200.994 104.037,194.327 104,187.5C 98.8333,179.921 93.1667,179.588 87,186.5C 86.1376,188.087 85.4709,189.754 85,191.5C 78.4795,184.101 75.6462,175.434 76.5,165.5C 76.3677,161.651 76.8677,157.984 78,154.5C 84.1984,161.015 91.6984,165.015 100.5,166.5 Z"/></g>
<g><path style="opacity:1" fill="#ff510c" d="M 140.5,185.5 C 127.071,179.116 113.738,172.783 100.5,166.5C 113.404,167.389 126.07,166.222 138.5,163C 141.329,161.753 143.995,160.253 146.5,158.5C 149.945,168.545 147.945,177.545 140.5,185.5 Z"/></g>
</svg>
