<?xml version="1.0" encoding="UTF-8"?>
<!DOCTYPE svg PUBLIC "-//W3C//DTD SVG 1.1//EN" "http://www.w3.org/Graphics/SVG/1.1/DTD/svg11.dtd">
<svg xmlns="http://www.w3.org/2000/svg" version="1.1" width="225px" height="225px" style="shape-rendering:geometricPrecision; text-rendering:geometricPrecision; image-rendering:optimizeQuality; fill-rule:evenodd; clip-rule:evenodd" xmlns:xlink="http://www.w3.org/1999/xlink">
<g><path style="opacity:1" fill="#fefefe" d="M -0.5,-0.5 C 74.5,-0.5 149.5,-0.5 224.5,-0.5C 224.5,74.5 224.5,149.5 224.5,224.5C 149.5,224.5 74.5,224.5 -0.5,224.5C -0.5,149.5 -0.5,74.5 -0.5,-0.5 Z"/></g>
<g><path style="opacity:1" fill="#eeedef" d="M 207.5,35.5 C 203.868,35.7987 201.868,37.7987 201.5,41.5C 203.5,41.5 205.5,41.5 207.5,41.5C 207.5,42.8333 207.5,44.1667 207.5,45.5C 205.076,45.1924 202.743,45.5258 200.5,46.5C 202.552,46.7053 204.886,46.7053 207.5,46.5C 209.442,50.7187 211.108,55.0521 212.5,59.5C 212.06,65.2409 211.227,70.9076 210,76.5C 209.411,78.8633 207.911,79.8633 205.5,79.5C 204.457,84.8091 203.457,90.1424 202.5,95.5C 201.5,95.5 200.5,95.5 199.5,95.5C 199.338,97.8244 198.172,99.4911 196,100.5C 195.605,104.019 194.605,107.352 193,110.5C 192,110.833 191,111.167 190,111.5C 188.511,117.147 185.511,121.814 181,125.5C 180.108,131.78 177.441,137.114 173,141.5C 171.857,144.777 171.023,148.11 170.5,151.5C 169.5,151.5 168.5,151.5 167.5,151.5C 164.505,158.47 160.672,165.137 156,171.5C 155.856,175.931 154.523,179.931 152,183.5C 151.667,182.5 151.333,181.5 151,180.5C 148.19,184.453 146.19,188.787 145,193.5C 141.308,195.861 138.808,199.194 137.5,203.5C 136.019,204.48 134.685,205.647 133.5,207C 133.833,207.333 134.167,207.667 134.5,208C 130.495,210.422 126.162,212.089 121.5,213C 117.585,213.015 113.918,213.848 110.5,215.5C 104.603,213.035 98.6034,210.868 92.5,209C 91.7113,205.835 89.5447,203.335 86,201.5C 85.2072,197.705 83.2072,194.705 80,192.5C 77.1146,186.729 74.2813,181.063 71.5,175.5C 70.5,175.5 69.5,175.5 68.5,175.5C 68.1215,169.953 65.9548,165.286 62,161.5C 60.8913,157.281 59.2246,153.281 57,149.5C 52.9885,147.492 50.9885,144.159 51,139.5C 49.7523,136.421 47.9189,133.754 45.5,131.5C 44.1813,128.558 43.0146,125.558 42,122.5C 40.7365,120.393 38.9032,119.393 36.5,119.5C 36.6567,118.127 36.49,116.793 36,115.5C 31.2737,108.714 27.607,101.381 25,93.5C 22.4054,92.7691 20.7387,91.1025 20,88.5C 19,84.5 18,80.5 17,76.5C 16,75.5 15,74.5 14,73.5C 13.5539,68.6024 12.7205,63.769 11.5,59C 12.4359,54.3186 13.7692,49.8186 15.5,45.5C 20.8333,45.1667 20.8333,44.8333 15.5,44.5C 15.5,43.5 15.5,42.5 15.5,41.5C 20.8333,41.1667 20.8333,40.8333 15.5,40.5C 15.5,39.5 15.5,38.5 15.5,37.5C 19.0128,37.3075 22.3462,37.9741 25.5,39.5C 27.7848,38.2721 27.6181,36.9388 25,35.5C 21.9063,34.4345 18.7396,33.7678 15.5,33.5C 17.5841,31.9239 19.5841,30.0905 21.5,28C 21.8333,27.8333 22.1667,27.6667 22.5,27.5C 23.2508,28.376 23.7508,29.376 24,30.5C 26.3333,28.5 28.6667,26.5 31,24.5C 36.2541,25.8069 41.7541,26.4736 47.5,26.5C 58.2777,26.3082 68.9444,25.1415 79.5,23C 81.9066,20.7152 84.4066,18.5486 87,16.5C 87.3076,17.3081 87.8076,17.9747 88.5,18.5C 90.1667,17.5 91.8333,16.5 93.5,15.5C 99.3682,14.9921 104.868,13.3254 110,10.5C 112.942,11.3147 115.775,10.8147 118.5,9C 124.144,8.24323 129.811,7.74323 135.5,7.5C 141.531,8.341 147.531,8.341 153.5,7.5C 160.977,12.8736 168.643,18.0402 176.5,23C 181.435,23.6324 186.101,25.1324 190.5,27.5C 191.251,26.624 191.751,25.624 192,24.5C 194.074,26.4521 196.241,28.2854 198.5,30C 201.5,30.3333 204.5,30.6667 207.5,31C 205.616,31.2163 203.949,31.883 202.5,33C 204.107,32.9813 205.774,32.8146 207.5,32.5C 207.5,33.5 207.5,34.5 207.5,35.5 Z"/></g>
<g><path style="opacity:1" fill="#f6f6f6" d="M 15.5,33.5 C 18.7396,33.7678 21.9063,34.4345 25,35.5C 27.6181,36.9388 27.7848,38.2721 25.5,39.5C 22.3462,37.9741 19.0128,37.3075 15.5,37.5C 15.5,38.5 15.5,39.5 15.5,40.5C 20.8333,40.8333 20.8333,41.1667 15.5,41.5C 15.5,42.5 15.5,43.5 15.5,44.5C 20.8333,44.8333 20.8333,45.1667 15.5,45.5C 13.7692,49.8186 12.4359,54.3186 11.5,59C 12.7205,63.769 13.5539,68.6024 14,73.5C 15,74.5 16,75.5 17,76.5C 18,80.5 19,84.5 20,88.5C 20.7387,91.1025 22.4054,92.7691 25,93.5C 27.607,101.381 31.2737,108.714 36,115.5C 36.49,116.793 36.6567,118.127 36.5,119.5C 38.9032,119.393 40.7365,120.393 42,122.5C 43.0146,125.558 44.1813,128.558 45.5,131.5C 47.9189,133.754 49.7523,136.421 51,139.5C 50.9885,144.159 52.9885,147.492 57,149.5C 59.2246,153.281 60.8913,157.281 62,161.5C 65.9548,165.286 68.1215,169.953 68.5,175.5C 69.5,175.5 70.5,175.5 71.5,175.5C 74.2813,181.063 77.1146,186.729 80,192.5C 83.2072,194.705 85.2072,197.705 86,201.5C 89.5447,203.335 91.7113,205.835 92.5,209C 98.6034,210.868 104.603,213.035 110.5,215.5C 113.918,213.848 117.585,213.015 121.5,213C 126.162,212.089 130.495,210.422 134.5,208C 134.167,207.667 133.833,207.333 133.5,207C 134.685,205.647 136.019,204.48 137.5,203.5C 138.808,199.194 141.308,195.861 145,193.5C 146.19,188.787 148.19,184.453 151,180.5C 151.333,181.5 151.667,182.5 152,183.5C 154.523,179.931 155.856,175.931 156,171.5C 160.672,165.137 164.505,158.47 167.5,151.5C 168.5,151.5 169.5,151.5 170.5,151.5C 171.023,148.11 171.857,144.777 173,141.5C 177.441,137.114 180.108,131.78 181,125.5C 185.511,121.814 188.511,117.147 190,111.5C 191,111.167 192,110.833 193,110.5C 194.605,107.352 195.605,104.019 196,100.5C 198.172,99.4911 199.338,97.8244 199.5,95.5C 200.5,95.5 201.5,95.5 202.5,95.5C 203.457,90.1424 204.457,84.8091 205.5,79.5C 207.911,79.8633 209.411,78.8633 210,76.5C 211.227,70.9076 212.06,65.2409 212.5,59.5C 211.108,55.0521 209.442,50.7187 207.5,46.5C 204.886,46.7053 202.552,46.7053 200.5,46.5C 202.743,45.5258 205.076,45.1924 207.5,45.5C 207.5,44.1667 207.5,42.8333 207.5,41.5C 205.5,41.5 203.5,41.5 201.5,41.5C 201.868,37.7987 203.868,35.7987 207.5,35.5C 209.017,35.5106 210.184,36.1772 211,37.5C 213.35,40.527 214.85,43.8603 215.5,47.5C 216.833,47.5 218.167,47.5 219.5,47.5C 219.61,58.1851 219.277,68.8518 218.5,79.5C 217.5,79.5 216.5,79.5 215.5,79.5C 214.16,84.7034 211.66,89.37 208,93.5C 208.623,95.9849 207.623,97.9849 205,99.5C 199.605,112.798 192.605,125.132 184,136.5C 180.043,146.825 174.71,156.491 168,165.5C 165.925,169.271 164.258,173.271 163,177.5C 160.347,179.43 159.014,182.096 159,185.5C 157.341,186.817 156.174,188.483 155.5,190.5C 154.372,191.262 153.205,191.929 152,192.5C 149.673,200.815 145.506,208.149 139.5,214.5C 135.259,216.574 131.425,219.24 128,222.5C 127.692,221.692 127.192,221.025 126.5,220.5C 123.861,222.446 120.861,223.446 117.5,223.5C 102.749,223.707 90.2494,218.707 80,208.5C 73.3613,194.31 65.528,180.643 56.5,167.5C 55.6858,165.234 55.1858,162.9 55,160.5C 50.3946,157.382 47.5613,153.049 46.5,147.5C 45.5224,147.023 44.6891,146.357 44,145.5C 38.7996,133.434 32.2996,122.1 24.5,111.5C 23.6858,109.234 23.1858,106.9 23,104.5C 18.3946,101.382 15.5613,97.0487 14.5,91.5C 13.5224,91.0233 12.6891,90.3567 12,89.5C 11.7261,86.2855 10.3927,83.6188 8,81.5C 7.50166,78.1832 7.33499,74.8499 7.5,71.5C 6.5,71.5 5.5,71.5 4.5,71.5C 4.16667,66.1667 3.83333,60.8333 3.5,55.5C 4.83333,55.5 6.16667,55.5 7.5,55.5C 7.33499,52.1501 7.50166,48.8168 8,45.5C 10.2098,41.2023 12.7098,37.2023 15.5,33.5 Z"/></g>
<g><path style="opacity:1" fill="#fcdb3a" d="M 146.5,53.5 C 145.065,54.9133 144.065,56.58 143.5,58.5C 144.31,53.2594 144.31,48.0927 143.5,43C 132.802,43.0077 122.136,43.0077 111.5,43C 110.062,43.2189 108.729,43.7189 107.5,44.5C 109.598,45.4495 111.765,45.4495 114,44.5C 118.354,45.9856 122.854,46.8189 127.5,47C 122.177,47.4994 116.844,47.666 111.5,47.5C 111.5,49.1667 111.5,50.8333 111.5,52.5C 104.942,52.8108 98.6091,52.3108 92.5,51C 92.0979,55.0585 92.0979,59.2251 92.5,63.5C 90.7343,73.8067 89.7343,84.4734 89.5,95.5C 88.1667,95.5 86.8333,95.5 85.5,95.5C 86.1655,87.5173 86.4988,79.5173 86.5,71.5C 87.4731,69.0521 87.8064,66.3854 87.5,63.5C 88.4731,61.0521 88.8064,58.3854 88.5,55.5C 89.3261,50.6835 89.8261,45.6835 90,40.5C 90.414,40.0426 90.914,39.7093 91.5,39.5C 92.1667,41.8333 92.8333,44.1667 93.5,46.5C 93.4585,43.5247 93.7918,40.5247 94.5,37.5C 110.918,34.43 127.251,30.93 143.5,27C 146.817,26.5017 150.15,26.335 153.5,26.5C 151.043,35.4466 148.709,44.4466 146.5,53.5 Z"/></g>
<g><path style="opacity:1" fill="#f9da78" d="M 94.5,37.5 C 93.7918,40.5247 93.4585,43.5247 93.5,46.5C 92.8333,44.1667 92.1667,41.8333 91.5,39.5C 90.914,39.7093 90.414,40.0426 90,40.5C 89.8261,45.6835 89.3261,50.6835 88.5,55.5C 88.5,49.5 88.5,43.5 88.5,37.5C 90.5,37.5 92.5,37.5 94.5,37.5 Z"/></g>
<g><path style="opacity:1" fill="#8b79f6" d="M 197.5,52.5 C 196.833,53.1667 196.167,53.8333 195.5,54.5C 195.02,48.6557 193.853,48.3224 192,53.5C 191.517,52.552 191.351,51.552 191.5,50.5C 189.403,50.0033 187.57,49.67 186,49.5C 183.597,50.4794 182.764,51.9794 183.5,54C 179.159,54.8372 176.159,57.3372 174.5,61.5C 172.568,60.4798 170.568,60.3131 168.5,61C 169.328,61.9147 170.328,62.5814 171.5,63C 165.481,63.9405 159.481,64.9405 153.5,66C 157.025,66.1787 160.359,66.6787 163.5,67.5C 156.42,68.0358 149.42,68.8691 142.5,70C 141.941,69.2753 141.608,68.4419 141.5,67.5C 143.125,64.7654 143.792,61.7654 143.5,58.5C 144.065,56.58 145.065,54.9133 146.5,53.5C 163.195,49.3533 180.028,47.02 197,46.5C 197.495,48.4727 197.662,50.4727 197.5,52.5 Z"/></g>
<g><path style="opacity:1" fill="#56b9fb" d="M 74.5,53.5 C 70.8333,53.5 67.1667,53.5 63.5,53.5C 63.8633,55.9115 62.8633,57.4115 60.5,58C 61,58.1667 61.5,58.3333 62,58.5C 67.8227,57.2305 73.656,57.2305 79.5,58.5C 67.4639,58.4551 57.1306,61.4551 48.5,67.5C 46.2901,70.635 44.6234,74.635 43.5,79.5C 39.2752,73.4012 35.2752,67.0678 31.5,60.5C 29.4432,56.8815 27.7765,53.0482 26.5,49C 26.5428,46.6241 27.7095,45.1241 30,44.5C 45.0756,46.9785 59.909,49.9785 74.5,53.5 Z"/></g>
<g><path style="opacity:1" fill="#fdd22b" d="M 143.5,58.5 C 143.792,61.7654 143.125,64.7654 141.5,67.5C 141.608,68.4419 141.941,69.2753 142.5,70C 149.42,68.8691 156.42,68.0358 163.5,67.5C 164.097,67.7352 164.43,68.2352 164.5,69C 163.356,71.6325 162.023,74.1325 160.5,76.5C 156.989,75.4111 153.489,75.4111 150,76.5C 149.167,76.1667 148.333,75.8333 147.5,75.5C 149.966,74.8765 152.299,74.0432 154.5,73C 153.167,72.8333 151.833,72.6667 150.5,72.5C 147.31,73.6554 143.977,74.3221 140.5,74.5C 138.693,70.96 138.026,67.2934 138.5,63.5C 137.507,66.4926 135.507,68.4926 132.5,69.5C 130.938,65.6074 129.605,65.7741 128.5,70C 117.511,70.7935 106.511,71.2935 95.5,71.5C 95.7367,75.2733 95.2367,78.9399 94,82.5C 93.6667,82.1667 93.3333,81.8333 93,81.5C 92.5005,75.5092 92.3338,69.5092 92.5,63.5C 92.0979,59.2251 92.0979,55.0585 92.5,51C 98.6091,52.3108 104.942,52.8108 111.5,52.5C 111.5,50.8333 111.5,49.1667 111.5,47.5C 116.844,47.666 122.177,47.4994 127.5,47C 122.854,46.8189 118.354,45.9856 114,44.5C 111.765,45.4495 109.598,45.4495 107.5,44.5C 108.729,43.7189 110.062,43.2189 111.5,43C 122.136,43.0077 132.802,43.0077 143.5,43C 144.31,48.0927 144.31,53.2594 143.5,58.5 Z"/></g>
<g><path style="opacity:1" fill="#66a5fa" d="M 74.5,53.5 C 76.7659,53.1412 78.5993,53.8078 80,55.5C 82.3806,54.565 84.8806,54.2317 87.5,54.5C 87.5,57.5 87.5,60.5 87.5,63.5C 87.8064,66.3854 87.4731,69.0521 86.5,71.5C 86.8134,68.7531 86.48,66.0865 85.5,63.5C 84.1939,68.7524 83.3605,74.0857 83,79.5C 82.4867,74.103 81.6533,68.7696 80.5,63.5C 78.1432,63.3367 75.8098,63.5034 73.5,64C 69.6703,68.4393 65.6703,71.7727 61.5,74C 59.316,76.0165 57.316,78.1831 55.5,80.5C 56.0181,83.5081 57.5181,85.8415 60,87.5C 60.49,88.7932 60.6567,90.1266 60.5,91.5C 57.8691,91.0339 55.7024,90.3672 54,89.5C 52.872,91.3453 52.372,93.3453 52.5,95.5C 54.1788,95.2852 55.1788,95.9519 55.5,97.5C 54.596,98.209 54.2627,99.209 54.5,100.5C 52.2502,97.6671 50.2502,94.6671 48.5,91.5C 47.6765,87.0551 46.0098,83.0551 43.5,79.5C 44.6234,74.635 46.2901,70.635 48.5,67.5C 57.1306,61.4551 67.4639,58.4551 79.5,58.5C 73.656,57.2305 67.8227,57.2305 62,58.5C 61.5,58.3333 61,58.1667 60.5,58C 62.8633,57.4115 63.8633,55.9115 63.5,53.5C 67.1667,53.5 70.8333,53.5 74.5,53.5 Z"/></g>
<g><path style="opacity:1" fill="#6e98fc" d="M 86.5,71.5 C 84.367,81.1373 82.7004,91.1373 81.5,101.5C 80.914,101.291 80.414,100.957 80,100.5C 79.6667,96.1667 79.3333,91.8333 79,87.5C 76.0973,89.5463 74.264,92.213 73.5,95.5C 67.6539,96.1471 62.8205,98.8138 59,103.5C 59.2035,101.063 60.0368,98.7293 61.5,96.5C 61.1667,96.1667 60.8333,95.8333 60.5,95.5C 59.5,97.1667 58.1667,98.5 56.5,99.5C 55.7025,99.0431 55.3691,98.3764 55.5,97.5C 55.1788,95.9519 54.1788,95.2852 52.5,95.5C 52.372,93.3453 52.872,91.3453 54,89.5C 55.7024,90.3672 57.8691,91.0339 60.5,91.5C 60.6567,90.1266 60.49,88.7932 60,87.5C 57.5181,85.8415 56.0181,83.5081 55.5,80.5C 57.316,78.1831 59.316,76.0165 61.5,74C 65.6703,71.7727 69.6703,68.4393 73.5,64C 75.8098,63.5034 78.1432,63.3367 80.5,63.5C 81.6533,68.7696 82.4867,74.103 83,79.5C 83.3605,74.0857 84.1939,68.7524 85.5,63.5C 86.48,66.0865 86.8134,68.7531 86.5,71.5 Z"/></g>
<g><path style="opacity:1" fill="#9766f8" d="M 195.5,54.5 C 186.949,69.5966 178.616,84.5966 170.5,99.5C 170.285,94.3549 171.618,89.6883 174.5,85.5C 170.932,83.6775 168.598,84.6775 167.5,88.5C 164.784,90.5204 161.784,90.8537 158.5,89.5C 157.634,92.1666 156.634,94.8332 155.5,97.5C 154.85,95.8164 153.85,94.4831 152.5,93.5C 154.877,87.7434 157.544,82.0767 160.5,76.5C 162.023,74.1325 163.356,71.6325 164.5,69C 164.43,68.2352 164.097,67.7352 163.5,67.5C 160.359,66.6787 157.025,66.1787 153.5,66C 159.481,64.9405 165.481,63.9405 171.5,63C 170.328,62.5814 169.328,61.9147 168.5,61C 170.568,60.3131 172.568,60.4798 174.5,61.5C 176.159,57.3372 179.159,54.8372 183.5,54C 182.764,51.9794 183.597,50.4794 186,49.5C 187.57,49.67 189.403,50.0033 191.5,50.5C 191.351,51.552 191.517,52.552 192,53.5C 193.853,48.3224 195.02,48.6557 195.5,54.5 Z"/></g>
<g><path style="opacity:1" fill="#fdc420" d="M 92.5,63.5 C 92.3338,69.5092 92.5005,75.5092 93,81.5C 93.3333,81.8333 93.6667,82.1667 94,82.5C 95.2367,78.9399 95.7367,75.2733 95.5,71.5C 106.511,71.2935 117.511,70.7935 128.5,70C 129.605,65.7741 130.938,65.6074 132.5,69.5C 135.507,68.4926 137.507,66.4926 138.5,63.5C 138.026,67.2934 138.693,70.96 140.5,74.5C 143.977,74.3221 147.31,73.6554 150.5,72.5C 151.833,72.6667 153.167,72.8333 154.5,73C 152.299,74.0432 149.966,74.8765 147.5,75.5C 148.333,75.8333 149.167,76.1667 150,76.5C 153.489,75.4111 156.989,75.4111 160.5,76.5C 157.544,82.0767 154.877,87.7434 152.5,93.5C 149.752,98.6657 146.752,103.666 143.5,108.5C 143.5,107.5 143.5,106.5 143.5,105.5C 137.666,104.968 132.332,106.635 127.5,110.5C 122.208,111.495 116.875,111.828 111.5,111.5C 111.462,118.041 110.796,118.041 109.5,111.5C 108.895,114.304 108.062,116.971 107,119.5C 106.333,121.833 106.333,124.167 107,126.5C 107.824,122.928 109.157,120.261 111,118.5C 112.613,119.622 113.78,119.122 114.5,117C 115.793,116.51 117.127,116.343 118.5,116.5C 118.5,117.5 118.5,118.5 118.5,119.5C 120.599,118.769 122.599,118.769 124.5,119.5C 122.827,121.086 120.827,121.753 118.5,121.5C 118.5,122.5 118.5,123.5 118.5,124.5C 116.179,124.771 114.179,124.104 112.5,122.5C 112.167,123 111.833,123.5 111.5,124C 112.429,125.077 113.096,126.244 113.5,127.5C 110.568,127.284 107.902,127.951 105.5,129.5C 103.962,129.547 102.962,128.88 102.5,127.5C 103.705,121.142 105.038,114.809 106.5,108.5C 107.634,106.034 107.801,103.367 107,100.5C 104.765,99.0198 102.932,99.3531 101.5,101.5C 101.167,101.5 100.833,101.5 100.5,101.5C 95.5261,102.326 90.5261,102.993 85.5,103.5C 85.5,100.833 85.5,98.1667 85.5,95.5C 86.8333,95.5 88.1667,95.5 89.5,95.5C 89.7343,84.4734 90.7343,73.8067 92.5,63.5 Z"/></g>
<g><path style="opacity:1" fill="#dcd9dd" d="M 197.5,52.5 C 197.703,54.3904 197.037,55.8904 195.5,57C 196.304,58.7713 197.471,60.2713 199,61.5C 199.499,67.4908 199.666,73.4908 199.5,79.5C 195.998,80.7852 194.165,83.4519 194,87.5C 189.717,91.5893 187.051,96.5893 186,102.5C 182.679,107.129 179.346,111.796 176,116.5C 175.692,115.692 175.192,115.025 174.5,114.5C 173.813,116.555 172.646,118.221 171,119.5C 171.052,122.272 172.219,124.606 174.5,126.5C 172.248,129.368 170.082,132.368 168,135.5C 167.667,132.833 167.333,130.167 167,127.5C 164.852,131.614 162.519,135.614 160,139.5C 159.667,138.833 159.333,138.167 159,137.5C 157.981,142.646 156.648,147.646 155,152.5C 151.044,156.358 148.211,161.025 146.5,166.5C 144.955,167.452 143.288,167.785 141.5,167.5C 141.509,161.371 140.176,161.371 137.5,167.5C 136.859,166.007 135.859,165.007 134.5,164.5C 136.012,160.799 138.012,157.466 140.5,154.5C 141.947,153.378 142.947,151.878 143.5,150C 144.766,149.691 145.933,149.191 147,148.5C 147.151,145.44 148.485,143.107 151,141.5C 150.478,139.12 150.645,136.787 151.5,134.5C 154.435,128.963 157.102,123.296 159.5,117.5C 160.458,117.047 161.292,116.381 162,115.5C 164.183,109.75 167.017,104.417 170.5,99.5C 178.616,84.5966 186.949,69.5966 195.5,54.5C 196.167,53.8333 196.833,53.1667 197.5,52.5 Z"/></g>
<g><path style="opacity:1" fill="#c795c2" d="M 106.5,108.5 C 106.808,106.076 106.474,103.743 105.5,101.5C 104.274,102.363 102.94,102.363 101.5,101.5C 102.932,99.3531 104.765,99.0198 107,100.5C 107.801,103.367 107.634,106.034 106.5,108.5 Z"/></g>
<g><path style="opacity:1" fill="#7f84f9" d="M 86.5,71.5 C 86.4988,79.5173 86.1655,87.5173 85.5,95.5C 85.5,98.1667 85.5,100.833 85.5,103.5C 90.5261,102.993 95.5261,102.326 100.5,101.5C 95.9068,103.776 90.9068,105.276 85.5,106C 88.1059,106.45 89.4392,107.95 89.5,110.5C 90.8734,110.343 92.2068,110.51 93.5,111C 90.2583,111.986 87.5917,111.152 85.5,108.5C 83.024,109.815 80.8573,111.482 79,113.5C 78.2904,112.027 77.1238,111.36 75.5,111.5C 76.158,114.156 76.8246,116.822 77.5,119.5C 77.1667,120.5 76.8333,121.5 76.5,122.5C 75.1936,121.088 74.3603,119.421 74,117.5C 73.1004,119.398 71.9337,121.064 70.5,122.5C 69.5481,124.045 69.2148,125.712 69.5,127.5C 68.0094,124.125 66.176,120.792 64,117.5C 63.5045,115.527 63.3379,113.527 63.5,111.5C 62.325,111.719 61.325,111.386 60.5,110.5C 58.4608,107.071 56.4608,103.737 54.5,100.5C 54.2627,99.209 54.596,98.209 55.5,97.5C 55.3691,98.3764 55.7025,99.0431 56.5,99.5C 58.1667,98.5 59.5,97.1667 60.5,95.5C 60.8333,95.8333 61.1667,96.1667 61.5,96.5C 60.0368,98.7293 59.2035,101.063 59,103.5C 62.8205,98.8138 67.6539,96.1471 73.5,95.5C 74.264,92.213 76.0973,89.5463 79,87.5C 79.3333,91.8333 79.6667,96.1667 80,100.5C 80.414,100.957 80.914,101.291 81.5,101.5C 82.7004,91.1373 84.367,81.1373 86.5,71.5 Z"/></g>
<g><path style="opacity:1" fill="#8c74f9" d="M 100.5,101.5 C 100.833,101.5 101.167,101.5 101.5,101.5C 102.94,102.363 104.274,102.363 105.5,101.5C 106.474,103.743 106.808,106.076 106.5,108.5C 105.038,114.809 103.705,121.142 102.5,127.5C 102.817,124.428 102.484,121.428 101.5,118.5C 100.877,120.966 100.043,123.299 99,125.5C 99.1775,120.793 99.0109,116.126 98.5,111.5C 97.8281,114.897 96.9948,118.23 96,121.5C 95.6667,119.5 95.3333,117.5 95,115.5C 93.1667,116.667 91.3333,117.833 89.5,119C 89.8333,119.333 90.1667,119.667 90.5,120C 87.5,121.667 85.1667,124 83.5,127C 81.8333,127.333 80.1667,127.667 78.5,128C 79.6309,133.113 79.6309,138.28 78.5,143.5C 76.9758,139.446 75.1425,135.446 73,131.5C 71.5952,130.269 70.4286,128.936 69.5,127.5C 69.2148,125.712 69.5481,124.045 70.5,122.5C 71.9337,121.064 73.1004,119.398 74,117.5C 74.3603,119.421 75.1936,121.088 76.5,122.5C 76.8333,121.5 77.1667,120.5 77.5,119.5C 76.8246,116.822 76.158,114.156 75.5,111.5C 77.1238,111.36 78.2904,112.027 79,113.5C 80.8573,111.482 83.024,109.815 85.5,108.5C 87.5917,111.152 90.2583,111.986 93.5,111C 92.2068,110.51 90.8734,110.343 89.5,110.5C 89.4392,107.95 88.1059,106.45 85.5,106C 90.9068,105.276 95.9068,103.776 100.5,101.5 Z"/></g>
<g><path style="opacity:1" fill="#a15af4" d="M 170.5,99.5 C 167.017,104.417 164.183,109.75 162,115.5C 161.292,116.381 160.458,117.047 159.5,117.5C 159.136,114.155 157.469,113.155 154.5,114.5C 151.981,117.54 149.981,120.873 148.5,124.5C 146.499,122.513 145.665,120.18 146,117.5C 146.689,118.357 147.522,119.023 148.5,119.5C 150.443,116.22 152.777,113.22 155.5,110.5C 154.185,108.684 152.685,107.017 151,105.5C 150.45,110.07 149.283,110.403 147.5,106.5C 146.702,108.078 146.202,109.744 146,111.5C 145.329,110.748 144.496,110.414 143.5,110.5C 143.5,109.833 143.5,109.167 143.5,108.5C 146.752,103.666 149.752,98.6657 152.5,93.5C 153.85,94.4831 154.85,95.8164 155.5,97.5C 156.634,94.8332 157.634,92.1666 158.5,89.5C 161.784,90.8537 164.784,90.5204 167.5,88.5C 168.598,84.6775 170.932,83.6775 174.5,85.5C 171.618,89.6883 170.285,94.3549 170.5,99.5 Z"/></g>
<g><path style="opacity:1" fill="#fbb519" d="M 143.5,108.5 C 143.5,109.167 143.5,109.833 143.5,110.5C 133.45,129.267 123.95,148.267 115,167.5C 114.311,168.357 113.478,169.023 112.5,169.5C 111.431,164.844 111.431,160.178 112.5,155.5C 113.451,154.081 113.784,152.415 113.5,150.5C 114.924,148.485 115.59,146.152 115.5,143.5C 116.259,138.629 117.259,133.795 118.5,129C 117.5,126.389 115.833,125.889 113.5,127.5C 113.096,126.244 112.429,125.077 111.5,124C 111.833,123.5 112.167,123 112.5,122.5C 114.179,124.104 116.179,124.771 118.5,124.5C 118.5,123.5 118.5,122.5 118.5,121.5C 120.827,121.753 122.827,121.086 124.5,119.5C 122.599,118.769 120.599,118.769 118.5,119.5C 118.5,118.5 118.5,117.5 118.5,116.5C 117.127,116.343 115.793,116.51 114.5,117C 113.78,119.122 112.613,119.622 111,118.5C 109.157,120.261 107.824,122.928 107,126.5C 106.333,124.167 106.333,121.833 107,119.5C 108.062,116.971 108.895,114.304 109.5,111.5C 110.796,118.041 111.462,118.041 111.5,111.5C 116.875,111.828 122.208,111.495 127.5,110.5C 132.332,106.635 137.666,104.968 143.5,105.5C 143.5,106.5 143.5,107.5 143.5,108.5 Z"/></g>
<g><path style="opacity:1" fill="#9667f9" d="M 102.5,127.5 C 102.962,128.88 103.962,129.547 105.5,129.5C 107.902,127.951 110.568,127.284 113.5,127.5C 115.833,125.889 117.5,126.389 118.5,129C 117.259,133.795 116.259,138.629 115.5,143.5C 115.167,143.5 114.833,143.5 114.5,143.5C 113.982,140.113 113.149,136.779 112,133.5C 111.129,138.342 108.629,139.508 104.5,137C 108.748,136.031 109.081,135.198 105.5,134.5C 101.981,135.51 98.6474,137.01 95.5,139C 100.145,140.725 104.812,141.225 109.5,140.5C 109.5,141.5 109.5,142.5 109.5,143.5C 104.122,143.602 98.9554,143.602 94,143.5C 95.1982,146.27 95.5316,149.27 95,152.5C 93.8065,149.052 91.9731,146.052 89.5,143.5C 89.2448,145.343 89.0781,147.343 89,149.5C 87.0325,150.731 87.1992,151.731 89.5,152.5C 90.6869,151.106 91.3535,151.273 91.5,153C 90.2311,155.084 89.2311,157.251 88.5,159.5C 85.1667,154.167 81.8333,148.833 78.5,143.5C 79.6309,138.28 79.6309,133.113 78.5,128C 80.1667,127.667 81.8333,127.333 83.5,127C 85.1667,124 87.5,121.667 90.5,120C 90.1667,119.667 89.8333,119.333 89.5,119C 91.3333,117.833 93.1667,116.667 95,115.5C 95.3333,117.5 95.6667,119.5 96,121.5C 96.9948,118.23 97.8281,114.897 98.5,111.5C 99.0109,116.126 99.1775,120.793 99,125.5C 100.043,123.299 100.877,120.966 101.5,118.5C 102.484,121.428 102.817,124.428 102.5,127.5 Z"/></g>
<g><path style="opacity:1" fill="#d1b5de" d="M 151.5,134.5 C 150.645,136.787 150.478,139.12 151,141.5C 148.485,143.107 147.151,145.44 147,148.5C 145.933,149.191 144.766,149.691 143.5,150C 142.947,151.878 141.947,153.378 140.5,154.5C 141.819,150.841 143.153,147.174 144.5,143.5C 147.095,140.612 149.428,137.612 151.5,134.5 Z"/></g>
<g><path style="opacity:1" fill="#dad6db" d="M 31.5,60.5 C 35.2752,67.0678 39.2752,73.4012 43.5,79.5C 46.0098,83.0551 47.6765,87.0551 48.5,91.5C 50.2502,94.6671 52.2502,97.6671 54.5,100.5C 56.4608,103.737 58.4608,107.071 60.5,110.5C 61.325,111.386 62.325,111.719 63.5,111.5C 63.3379,113.527 63.5045,115.527 64,117.5C 66.176,120.792 68.0094,124.125 69.5,127.5C 70.4286,128.936 71.5952,130.269 73,131.5C 75.1425,135.446 76.9758,139.446 78.5,143.5C 81.8333,148.833 85.1667,154.167 88.5,159.5C 90.2399,162.638 92.2399,165.638 94.5,168.5C 95.8632,174.228 98.5298,179.228 102.5,183.5C 104.383,187.919 106.55,192.252 109,196.5C 112.83,198.26 115.83,197.26 118,193.5C 120.415,188.727 122.915,184.061 125.5,179.5C 128.019,175.93 130.352,172.263 132.5,168.5C 132.429,171.024 133.429,173.024 135.5,174.5C 133.833,174.5 132.167,174.5 130.5,174.5C 130.377,176.622 130.377,178.789 130.5,181C 126.945,183.971 126.112,187.471 128,191.5C 131.737,187.163 135.07,183.163 138,179.5C 140.082,176.524 139.415,174.191 136,172.5C 134.759,171.123 134.592,169.79 135.5,168.5C 136.5,170.167 137.833,171.5 139.5,172.5C 139.833,171.167 140.167,169.833 140.5,168.5C 140.833,169.667 141.167,170.833 141.5,172C 140.399,175.803 139.399,179.636 138.5,183.5C 137.5,183.5 136.5,183.5 135.5,183.5C 135.649,184.552 135.483,185.552 135,186.5C 133.041,187.748 131.541,189.415 130.5,191.5C 128.827,193.086 126.827,193.753 124.5,193.5C 124.586,195.677 125.253,197.677 126.5,199.5C 124.922,200.298 123.256,200.798 121.5,201C 120.624,202.586 119.624,204.086 118.5,205.5C 117.28,205.113 116.613,204.28 116.5,203C 117.27,201.225 118.437,199.725 120,198.5C 120.667,197.5 120.667,196.5 120,195.5C 117.022,199.988 112.855,201.655 107.5,200.5C 107.741,203.999 106.908,204.332 105,201.5C 103.075,198.417 101.908,195.083 101.5,191.5C 96.3703,192.287 92.0369,190.954 88.5,187.5C 87.5713,186.311 87.238,184.978 87.5,183.5C 86.5,183.5 85.5,183.5 84.5,183.5C 84.2378,180.309 82.9045,177.642 80.5,175.5C 80.2164,167.727 77.3831,161.06 72,155.5C 71.51,154.207 71.3433,152.873 71.5,151.5C 70.5,151.5 69.5,151.5 68.5,151.5C 68.0445,148.797 67.3779,146.13 66.5,143.5C 67.8141,142.014 68.8141,140.347 69.5,138.5C 67.3861,135.061 65.7194,131.394 64.5,127.5C 62.1432,127.663 59.8098,127.497 57.5,127C 55.9632,125.89 55.2965,124.39 55.5,122.5C 54.5,122.5 53.5,122.5 52.5,122.5C 52.2447,119.984 51.4114,117.65 50,115.5C 49.586,115.957 49.086,116.291 48.5,116.5C 46.7264,110.286 43.8931,104.619 40,99.5C 39.51,98.2068 39.3433,96.8734 39.5,95.5C 37.8333,95.5 36.1667,95.5 34.5,95.5C 33.9586,92.3484 34.9586,89.8484 37.5,88C 36.451,87.5078 35.451,87.6744 34.5,88.5C 33.6786,85.5535 33.1786,82.5535 33,79.5C 29.17,74.847 27.8367,69.5136 29,63.5C 29.2355,61.8807 30.0689,60.8807 31.5,60.5 Z"/></g>
<g><path style="opacity:1" fill="#a355fb" d="M 114.5,143.5 C 114.007,145.806 113.674,148.139 113.5,150.5C 113.784,152.415 113.451,154.081 112.5,155.5C 112.665,152.482 112.498,149.482 112,146.5C 109.92,148.123 107.754,149.623 105.5,151C 105.833,151.333 106.167,151.667 106.5,152C 102.66,154.674 99.3266,157.841 96.5,161.5C 95.3652,163.707 94.6985,166.04 94.5,168.5C 92.2399,165.638 90.2399,162.638 88.5,159.5C 89.2311,157.251 90.2311,155.084 91.5,153C 91.3535,151.273 90.6869,151.106 89.5,152.5C 87.1992,151.731 87.0325,150.731 89,149.5C 89.0781,147.343 89.2448,145.343 89.5,143.5C 91.9731,146.052 93.8065,149.052 95,152.5C 95.5316,149.27 95.1982,146.27 94,143.5C 98.9554,143.602 104.122,143.602 109.5,143.5C 109.5,142.5 109.5,141.5 109.5,140.5C 104.812,141.225 100.145,140.725 95.5,139C 98.6474,137.01 101.981,135.51 105.5,134.5C 109.081,135.198 108.748,136.031 104.5,137C 108.629,139.508 111.129,138.342 112,133.5C 113.149,136.779 113.982,140.113 114.5,143.5 Z"/></g>
<g><path style="opacity:1" fill="#b148f7" d="M 159.5,117.5 C 157.102,123.296 154.435,128.963 151.5,134.5C 149.428,137.612 147.095,140.612 144.5,143.5C 143.153,147.174 141.819,150.841 140.5,154.5C 138.012,157.466 136.012,160.799 134.5,164.5C 133.655,165.671 132.989,167.005 132.5,168.5C 130.352,172.263 128.019,175.93 125.5,179.5C 124.75,175.679 123.084,175.012 120.5,177.5C 119.524,175.877 120.024,174.543 122,173.5C 122.557,171.414 121.724,170.081 119.5,169.5C 118.614,170.325 118.281,171.325 118.5,172.5C 115.413,170.983 112.079,170.316 108.5,170.5C 109.509,173.527 109.509,176.527 108.5,179.5C 107.5,178.833 106.5,178.167 105.5,177.5C 104.451,179.528 103.451,181.528 102.5,183.5C 98.5298,179.228 95.8632,174.228 94.5,168.5C 94.6985,166.04 95.3652,163.707 96.5,161.5C 99.3266,157.841 102.66,154.674 106.5,152C 106.167,151.667 105.833,151.333 105.5,151C 107.754,149.623 109.92,148.123 112,146.5C 112.498,149.482 112.665,152.482 112.5,155.5C 111.431,160.178 111.431,164.844 112.5,169.5C 113.478,169.023 114.311,168.357 115,167.5C 123.95,148.267 133.45,129.267 143.5,110.5C 144.496,110.414 145.329,110.748 146,111.5C 146.202,109.744 146.702,108.078 147.5,106.5C 149.283,110.403 150.45,110.07 151,105.5C 152.685,107.017 154.185,108.684 155.5,110.5C 152.777,113.22 150.443,116.22 148.5,119.5C 147.522,119.023 146.689,118.357 146,117.5C 145.665,120.18 146.499,122.513 148.5,124.5C 149.981,120.873 151.981,117.54 154.5,114.5C 157.469,113.155 159.136,114.155 159.5,117.5 Z"/></g>
<g><path style="opacity:1" fill="#d68292" d="M 114.5,143.5 C 114.833,143.5 115.167,143.5 115.5,143.5C 115.59,146.152 114.924,148.485 113.5,150.5C 113.674,148.139 114.007,145.806 114.5,143.5 Z"/></g>
<g><path style="opacity:1" fill="#ba3afa" d="M 125.5,179.5 C 122.915,184.061 120.415,188.727 118,193.5C 115.83,197.26 112.83,198.26 109,196.5C 106.55,192.252 104.383,187.919 102.5,183.5C 103.451,181.528 104.451,179.528 105.5,177.5C 106.5,178.167 107.5,178.833 108.5,179.5C 109.509,176.527 109.509,173.527 108.5,170.5C 112.079,170.316 115.413,170.983 118.5,172.5C 118.281,171.325 118.614,170.325 119.5,169.5C 121.724,170.081 122.557,171.414 122,173.5C 120.024,174.543 119.524,175.877 120.5,177.5C 123.084,175.012 124.75,175.679 125.5,179.5 Z"/></g>
</svg>
